<svg width="26" height="52" viewBox="0 0 26 52" fill="none" xmlns="http://www.w3.org/2000/svg">
<path fill-rule="evenodd" clip-rule="evenodd" d="M0 28.7857C0 28.0469 0.293494 27.3383 0.815917 26.8159C1.33834 26.2935 2.0469 26 2.78571 26H8.35714C9.09596 26 9.80452 26.2935 10.3269 26.8159C10.8494 27.3383 11.1429 28.0469 11.1429 28.7857V34.3571C11.1429 35.096 10.8494 35.8045 10.3269 36.3269C9.80452 36.8494 9.09596 37.1429 8.35714 37.1429H2.78571C2.0469 37.1429 1.33834 36.8494 0.815917 36.3269C0.293494 35.8045 0 35.096 0 34.3571V28.7857ZM14.8571 28.7857C14.8571 28.0469 15.1506 27.3383 15.6731 26.8159C16.1955 26.2935 16.904 26 17.6429 26H23.2143C23.9531 26 24.6617 26.2935 25.1841 26.8159C25.7065 27.3383 26 28.0469 26 28.7857V34.3571C26 35.096 25.7065 35.8045 25.1841 36.3269C24.6617 36.8494 23.9531 37.1429 23.2143 37.1429H17.6429C16.904 37.1429 16.1955 36.8494 15.6731 36.3269C15.1506 35.8045 14.8571 35.096 14.8571 34.3571V28.7857ZM0 43.6429C0 42.904 0.293494 42.1955 0.815917 41.6731C1.33834 41.1506 2.0469 40.8571 2.78571 40.8571H8.35714C9.09596 40.8571 9.80452 41.1506 10.3269 41.6731C10.8494 42.1955 11.1429 42.904 11.1429 43.6429V49.2143C11.1429 49.9531 10.8494 50.6617 10.3269 51.1841C9.80452 51.7065 9.09596 52 8.35714 52H2.78571C2.0469 52 1.33834 51.7065 0.815917 51.1841C0.293494 50.6617 0 49.9531 0 49.2143V43.6429ZM14.8571 43.6429C14.8571 42.904 15.1506 42.1955 15.6731 41.6731C16.1955 41.1506 16.904 40.8571 17.6429 40.8571H23.2143C23.9531 40.8571 24.6617 41.1506 25.1841 41.6731C25.7065 42.1955 26 42.904 26 43.6429V49.2143C26 49.9531 25.7065 50.6617 25.1841 51.1841C24.6617 51.7065 23.9531 52 23.2143 52H17.6429C16.904 52 16.1955 51.7065 15.6731 51.1841C15.1506 50.6617 14.8571 49.9531 14.8571 49.2143V43.6429Z" fill="#C4C4C4"/>
<path fill-rule="evenodd" clip-rule="evenodd" d="M0 2.78571C0 2.0469 0.293494 1.33834 0.815917 0.815917C1.33834 0.293494 2.0469 0 2.78571 0H8.35714C9.09596 0 9.80452 0.293494 10.3269 0.815917C10.8494 1.33834 11.1429 2.0469 11.1429 2.78571V8.35714C11.1429 9.09596 10.8494 9.80452 10.3269 10.3269C9.80452 10.8494 9.09596 11.1429 8.35714 11.1429H2.78571C2.0469 11.1429 1.33834 10.8494 0.815917 10.3269C0.293494 9.80452 0 9.09596 0 8.35714V2.78571ZM14.8571 2.78571C14.8571 2.0469 15.1506 1.33834 15.6731 0.815917C16.1955 0.293494 16.904 0 17.6429 0H23.2143C23.9531 0 24.6617 0.293494 25.1841 0.815917C25.7065 1.33834 26 2.0469 26 2.78571V8.35714C26 9.09596 25.7065 9.80452 25.1841 10.3269C24.6617 10.8494 23.9531 11.1429 23.2143 11.1429H17.6429C16.904 11.1429 16.1955 10.8494 15.6731 10.3269C15.1506 9.80452 14.8571 9.09596 14.8571 8.35714V2.78571ZM0 17.6429C0 16.904 0.293494 16.1955 0.815917 15.6731C1.33834 15.1506 2.0469 14.8571 2.78571 14.8571H8.35714C9.09596 14.8571 9.80452 15.1506 10.3269 15.6731C10.8494 16.1955 11.1429 16.904 11.1429 17.6429V23.2143C11.1429 23.9531 10.8494 24.6617 10.3269 25.1841C9.80452 25.7065 9.09596 26 8.35714 26H2.78571C2.0469 26 1.33834 25.7065 0.815917 25.1841C0.293494 24.6617 0 23.9531 0 23.2143V17.6429ZM14.8571 17.6429C14.8571 16.904 15.1506 16.1955 15.6731 15.6731C16.1955 15.1506 16.904 14.8571 17.6429 14.8571H23.2143C23.9531 14.8571 24.6617 15.1506 25.1841 15.6731C25.7065 16.1955 26 16.904 26 17.6429V23.2143C26 23.9531 25.7065 24.6617 25.1841 25.1841C24.6617 25.7065 23.9531 26 23.2143 26H17.6429C16.904 26 16.1955 25.7065 15.6731 25.1841C15.1506 24.6617 14.8571 23.9531 14.8571 23.2143V17.6429Z" fill="#F59F00"/>
</svg>
