<svg width="26" height="26" viewBox="0 0 26 26" fill="none" xmlns="http://www.w3.org/2000/svg">
<path fill-rule="evenodd" clip-rule="evenodd" d="M0 2.78571C0 2.0469 0.293494 1.33834 0.815917 0.815917C1.33834 0.293494 2.0469 0 2.78571 0H8.35714C9.09596 0 9.80452 0.293494 10.3269 0.815917C10.8494 1.33834 11.1429 2.0469 11.1429 2.78571V8.35714C11.1429 9.09596 10.8494 9.80452 10.3269 10.3269C9.80452 10.8494 9.09596 11.1429 8.35714 11.1429H2.78571C2.0469 11.1429 1.33834 10.8494 0.815917 10.3269C0.293494 9.80452 0 9.09596 0 8.35714V2.78571ZM14.8571 2.78571C14.8571 2.0469 15.1506 1.33834 15.6731 0.815917C16.1955 0.293494 16.904 0 17.6429 0H23.2143C23.9531 0 24.6617 0.293494 25.1841 0.815917C25.7065 1.33834 26 2.0469 26 2.78571V8.35714C26 9.09596 25.7065 9.80452 25.1841 10.3269C24.6617 10.8494 23.9531 11.1429 23.2143 11.1429H17.6429C16.904 11.1429 16.1955 10.8494 15.6731 10.3269C15.1506 9.80452 14.8571 9.09596 14.8571 8.35714V2.78571ZM0 17.6429C0 16.904 0.293494 16.1955 0.815917 15.6731C1.33834 15.1506 2.0469 14.8571 2.78571 14.8571H8.35714C9.09596 14.8571 9.80452 15.1506 10.3269 15.6731C10.8494 16.1955 11.1429 16.904 11.1429 17.6429V23.2143C11.1429 23.9531 10.8494 24.6617 10.3269 25.1841C9.80452 25.7065 9.09596 26 8.35714 26H2.78571C2.0469 26 1.33834 25.7065 0.815917 25.1841C0.293494 24.6617 0 23.9531 0 23.2143V17.6429ZM14.8571 17.6429C14.8571 16.904 15.1506 16.1955 15.6731 15.6731C16.1955 15.1506 16.904 14.8571 17.6429 14.8571H23.2143C23.9531 14.8571 24.6617 15.1506 25.1841 15.6731C25.7065 16.1955 26 16.904 26 17.6429V23.2143C26 23.9531 25.7065 24.6617 25.1841 25.1841C24.6617 25.7065 23.9531 26 23.2143 26H17.6429C16.904 26 16.1955 25.7065 15.6731 25.1841C15.1506 24.6617 14.8571 23.9531 14.8571 23.2143V17.6429Z" fill="#F59F00"/>
</svg>
